<?xml version="1.0" encoding="UTF-8" standalone="no"?>
<!-- Created with Inkscape (http://www.inkscape.org/) -->

<svg
   version="1.1"
   id="svg1"
   width="500"
   height="500"
   viewBox="0 0 500 500"
   sodipodi:docname="spotifly_wings.svg"
   inkscape:version="1.3.2 (091e20e, 2023-11-25, custom)"
   xmlns:inkscape="http://www.inkscape.org/namespaces/inkscape"
   xmlns:sodipodi="http://sodipodi.sourceforge.net/DTD/sodipodi-0.dtd"
   xmlns="http://www.w3.org/2000/svg"
   xmlns:svg="http://www.w3.org/2000/svg">
  <defs
     id="defs1" />
  <sodipodi:namedview
     id="namedview1"
     pagecolor="#505050"
     bordercolor="#ffffff"
     borderopacity="1"
     inkscape:showpageshadow="0"
     inkscape:pageopacity="0"
     inkscape:pagecheckerboard="1"
     inkscape:deskcolor="#505050"
     inkscape:zoom="1.554"
     inkscape:cx="259.00901"
     inkscape:cy="250"
     inkscape:window-width="1920"
     inkscape:window-height="991"
     inkscape:window-x="-9"
     inkscape:window-y="-9"
     inkscape:window-maximized="1"
     inkscape:current-layer="g1" />
  <g
     inkscape:groupmode="layer"
     inkscape:label="Image"
     id="g1">
    <path
       style="fill:#65fee0"
       d="m 193.10994,344.91867 c -2.41453,-0.47421 -5.14996,-1.5499 -6.07874,-2.39043 C 186.10243,341.68771 184.2038,341 182.81203,341 177.75293,341 160,330.14149 160,327.04712 c 0,-1.5653 -0.58872,-1.78057 -3.75,-1.37121 -3.15712,0.40882 -4.61192,-0.12059 -9.20171,-3.34856 -6.0835,-4.27847 -12.30393,-11.75029 -11.83523,-14.21617 0.24081,-1.26689 2.01368,-1.72314 8.29659,-2.13514 10.11913,-0.66355 7.96659,-1.63339 -5.44783,-2.45456 l -10.43817,-0.63897 -4.78615,-4.69125 c -2.63237,-2.5802 -4.79769,-5.02876 -4.81182,-5.44126 -0.0301,-0.87915 23.08871,-1.02707 25.34265,-0.16215 0.84255,0.32331 4.45487,4.52853 8.02738,9.34493 10.99527,14.82363 29.95642,30.70288 47.85429,40.07616 2.6125,1.3682 4.75,2.8259 4.75,3.23934 0,0.94911 -5.17703,0.79242 -10.89006,-0.32961 z m 103.39889,0.067 c 0.34478,-0.55786 2.50884,-1.96857 4.80902,-3.13492 8.55541,-4.33817 25.44591,-16.59437 33.55231,-24.34646 4.60359,-4.40238 11.04034,-11.67799 14.3039,-16.16803 3.26356,-4.49003 6.62129,-8.42753 7.46163,-8.75 2.3089,-0.886 25.36431,-0.70304 25.36431,0.20129 0,0.43318 -2.1375,2.88881 -4.75,5.45697 l -4.75,4.66937 -10.78334,0.69247 c -12.11344,0.77789 -15.46723,2.38543 -5.02568,2.40891 9.13487,0.0206 10.21456,0.78342 7.44683,5.26171 -2.66047,4.30473 -9.8145,10.98731 -14.17824,13.24389 -2.11944,1.096 -4.47668,1.49458 -6.70272,1.13334 -2.72413,-0.44206 -3.31906,-0.25876 -2.87935,0.88712 0.75371,1.96414 -1.95665,4.28871 -11.107,9.52605 -4.50801,2.58022 -9.12081,4.47474 -11.03814,4.53346 -1.81159,0.0555 -3.84247,0.80018 -4.51308,1.65487 -2.03115,2.58874 -18.76351,5.24286 -17.21045,2.72996 z M 114.92376,288.10809 C 111.39823,287.50862 105,281.69638 105,279.09321 c 0,-0.82133 4.56206,-1.06547 16.21943,-0.86798 l 16.21942,0.27477 2.26413,4 c 3.68102,6.50323 3.66132,6.51648 -9.45298,6.35809 -6.4625,-0.078 -13.35931,-0.41554 -15.32624,-0.75 z m 243.09269,-0.22221 c 0.009,-0.76224 1.03528,-3.18588 2.28051,-5.38588 l 2.26406,-4 15.89321,-0.27628 c 8.74127,-0.15195 16.22645,0.073 16.63374,0.5 0.40728,0.42696 -0.97936,2.75693 -3.08143,5.17772 l -3.82193,4.40144 -15.09231,0.48443 c -12.43436,0.39913 -15.0894,0.24037 -15.07585,-0.90143 z M 94.75,274.31067 c -0.9625,-0.25152 -1.75,-0.79332 -1.75,-1.204 0,-0.41067 -1.559304,-2.56837 -3.465119,-4.79489 -1.905816,-2.22651 -3.180816,-4.33251 -2.833334,-4.67999 0.851137,-0.85114 40.141883,-0.61521 43.285503,0.25992 1.76597,0.49161 2.96721,1.98486 4.14315,5.15032 0.91086,2.45188 1.45263,4.79547 1.20393,5.20797 -0.47663,0.79058 -37.578811,0.84605 -40.58413,0.0607 z M 365,272.96788 c 0,-1.11766 0.62398,-3.5255 1.38662,-5.35076 1.13578,-2.71831 2.08548,-3.43409 5.25,-3.95687 4.97799,-0.82237 40.83369,-0.85661 41.65053,-0.0398 0.82817,0.82818 -5.9843,9.69611 -8.11177,10.55923 -0.92146,0.37385 -10.33788,0.71135 -20.92538,0.75 -18.70781,0.0683 -19.25,0.0131 -19.25,-1.96183 z M 94.133765,257.84545 76.76753,256.98919 69.299989,251.9946 C 65.192841,249.24757 61.420146,247 60.916223,247 60.412301,247 60,246.49128 60,245.8695 c 0,-0.8319 7.841739,-0.9349 29.689627,-0.38997 16.329293,0.40728 31.741793,1.03319 34.250003,1.3909 4.48335,0.63939 4.58083,0.73309 5.77164,5.54812 0.66621,2.69376 0.97715,5.27658 0.69099,5.7396 -0.60721,0.98249 -11.99026,0.88435 -36.268495,-0.3127 z m 275.463975,0.3127 c -0.28616,-0.46302 0.0248,-3.04584 0.69099,-5.7396 1.19274,-4.8228 1.28164,-4.90778 5.8103,-5.55365 2.52947,-0.36075 18.27947,-0.94662 35,-1.30193 34.25596,-0.72793 32.57924,-1.32655 19.39465,6.92424 l -7.00632,4.38449 -21.49368,1.06141 c -25.99894,1.28389 -31.71699,1.32361 -32.39594,0.22504 z M 90,242.81362 55.5,241.94386 48,238.86961 C 37.964957,234.75624 37.417233,234 44.473086,234 c 9.641623,0 80.923674,3.0363 82.276914,3.50463 1.79824,0.62234 1.54204,5.16933 -0.33179,5.88838 -0.86998,0.33385 -1.65748,0.53575 -1.75,0.44868 C 124.5757,243.75462 108.975,243.29199 90,242.81362 Z m 282.9872,0.35305 c -1.16328,-0.39279 -1.33588,-4.83314 -0.2148,-5.526 1.08048,-0.66778 83.29599,-3.92292 86.28619,-3.41631 2.03103,0.3441 1.26477,0.97532 -4.55859,3.75522 -6.90386,3.2957 -7.26095,3.35257 -26,4.14076 -22.04593,0.92728 -54.07732,1.53102 -55.5128,1.04633 z M 77,232.44828 c -15.675,-0.68741 -32.375623,-1.29449 -37.112495,-1.34906 -8.048467,-0.0927 -8.867087,-0.30157 -12.5,-3.18907 -2.138128,-1.69942 -4.558756,-3.46567 -5.379175,-3.925 -0.820418,-0.45933 -1.197905,-1.12891 -0.83886,-1.48795 0.587259,-0.58726 84.56605,3.69014 99.41386,5.06358 5.93651,0.54913 6.08334,0.63363 6.08334,3.50097 l 0,2.93825 -10.58334,-0.15094 C 110.2625,233.76604 92.675,233.13569 77,232.44828 Z m 296.33333,-1.37858 c 0,-2.90879 0.052,-2.93465 7.08334,-3.5233 6.72076,-0.56265 93.97215,-5.5464 97.10182,-5.5464 2.74753,0 1.50926,1.73778 -3.76849,5.28866 l -5.25,3.53221 -43.5,1.60459 c -56.72532,2.09244 -51.66667,2.22518 -51.66667,-1.35576 z"
       id="path3263" />
  </g>
</svg>
