<?xml version="1.0" encoding="UTF-8" standalone="no"?>
<!-- Created with Inkscape (http://www.inkscape.org/) -->

<svg
   version="1.1"
   id="svg1"
   width="500"
   height="500"
   viewBox="0 0 500 500"
   sodipodi:docname="spotifly_logo_complete.svg"
   inkscape:version="1.3.2 (091e20e, 2023-11-25, custom)"
   xml:space="preserve"
   xmlns:inkscape="http://www.inkscape.org/namespaces/inkscape"
   xmlns:sodipodi="http://sodipodi.sourceforge.net/DTD/sodipodi-0.dtd"
   xmlns="http://www.w3.org/2000/svg"
   xmlns:svg="http://www.w3.org/2000/svg"><defs
     id="defs1" /><sodipodi:namedview
     id="namedview1"
     pagecolor="#505050"
     bordercolor="#ffffff"
     borderopacity="1"
     inkscape:showpageshadow="0"
     inkscape:pageopacity="0"
     inkscape:pagecheckerboard="1"
     inkscape:deskcolor="#505050"
     inkscape:zoom="1.554"
     inkscape:cx="250"
     inkscape:cy="243.56499"
     inkscape:window-width="1920"
     inkscape:window-height="991"
     inkscape:window-x="-9"
     inkscape:window-y="-9"
     inkscape:window-maximized="1"
     inkscape:current-layer="g1" /><g
     inkscape:groupmode="layer"
     inkscape:label="Image"
     id="g1"><path
       style="fill:#6efee1"
       d="m 236,350.38408 c -6.63743,-0.60698 -9.1555,-1.32346 -8.48188,-2.4134 0.7641,-1.23634 44.15461,-1.30924 44.91712,-0.0755 0.3043,0.49236 -0.16972,1.17265 -1.05338,1.51174 -2.01999,0.77514 -29.34018,1.52963 -35.38186,0.97712 z m -30.67738,-7.06083 c -1.19756,-0.24383 -2.71516,-1.0913 -3.37244,-1.88328 C 200.91279,340.18999 207.26454,340 250.09184,340 c 46.98701,0 49.25343,0.0833 47.58765,1.75 -1.60888,1.60972 -5.29341,1.76068 -45.96429,1.88328 -24.31836,0.0733 -45.19502,-0.0662 -46.39258,-0.31003 z M 188.25,335.33772 C 187.5625,335.06031 187,334.19583 187,333.41667 187,332.20944 196.31373,332 250,332 c 53.18282,0 63,0.21707 63,1.39301 0,0.76616 -0.7118,1.66616 -1.58179,2 -1.89029,0.72537 -121.36644,0.67174 -123.16821,-0.0553 z m -11,-7.36888 C 170.50289,325.25683 176.79638,325 250,325 c 50.54099,0 75,0.33419 75,1.02475 0,0.56361 -1.15429,1.46361 -2.5651,2 -3.29539,1.25291 -142.06169,1.19946 -145.1849,-0.0559 z m -10.12812,-7.87235 C 162.56423,317.20972 168.17733,317 250,317 c 81.82267,0 87.43577,0.20972 82.87812,3.09649 -1.80109,1.14079 -163.95515,1.14079 -165.75624,0 z m -8.69098,-8.20829 c -0.37792,-0.6115 -0.067,-1.5046 0.69098,-1.98469 1.80156,-1.14109 179.95468,-1.14109 181.75624,0 C 345.46205,312.80693 339.79561,313 250,313 c -65.60204,0 -91.0731,-0.30926 -91.5691,-1.1118 z m -5.75931,-6.54994 C 152.30222,304.96888 152,304.06667 152,303.33333 152,302.23129 169.01222,302 250.07332,302 c 92.86488,0 98.05543,0.0929 97.73635,1.75 -0.31777,1.65024 -5.87043,1.76453 -97.40174,2.00492 -53.38561,0.14021 -97.36697,-0.0473 -97.73634,-0.41666 z m -6.24069,-8.45006 c -0.37792,-0.6115 -0.067,-1.5046 0.69098,-1.98469 0.76161,-0.48239 46.78481,-0.87288 102.87812,-0.87288 56.09331,0 102.11651,0.39049 102.87812,0.87288 C 357.49433,297.82737 351.75895,298 250,298 c -74.40652,0 -103.07215,-0.30772 -103.5691,-1.1118 z m -4.29978,-7.23021 c -0.61257,-0.7381 -0.81767,-1.6381 -0.45578,-2 0.86027,-0.86027 215.78905,-0.86027 216.64932,0 0.36189,0.3619 0.15679,1.2619 -0.45578,2 -1.6564,1.99584 -214.08136,1.99584 -215.73776,0 z m -4.70022,-7.76979 c -1.38687,-2.24401 2.41033,-2.85791 17.76988,-2.87289 15.34002,-0.015 25.79922,1.22865 25.79922,3.06755 0,1.38327 -42.71183,1.19243 -43.5691,-0.19466 z m 63.75947,-0.6382 c 0.31544,-1.63796 3.44029,-1.75 48.80963,-1.75 45.36934,0 48.49419,0.11204 48.80963,1.75 0.31728,1.6475 -2.54158,1.75 -48.80963,1.75 -46.26805,0 -49.12691,-0.1025 -48.80963,-1.75 z M 319,282.08286 c 0,-1.8389 10.4592,-3.08251 25.79922,-3.06755 15.35955,0.015 19.15675,0.62888 17.76988,2.87289 C 361.71183,283.27529 319,283.46613 319,282.08286 Z m -183.75,-6.73 c -0.6875,-0.28574 -1.25,-1.17009 -1.25,-1.96522 0,-1.20222 2.23144,-1.3987 13.25,-1.16667 10.9871,0.23138 13.25,0.53521 13.25,1.77903 0,1.23966 -2.08275,1.53232 -12,1.68619 -6.6,0.10241 -12.5625,-0.0476 -13.25,-0.33333 z m 66.42616,-0.01 C 201.30427,274.97094 201,274.06667 201,273.33333 201,272.24034 209.84555,272 250.07332,272 c 46.19817,0 49.05359,0.10253 48.73645,1.75 -0.31442,1.63339 -3.53929,1.76729 -48.39716,2.0095 -26.43315,0.14272 -48.36456,-0.0448 -48.73645,-0.41667 z M 339.5,275 c -1.48591,-2.40426 1.20664,-3 13.55902,-3 10.39468,0 12.94098,0.27409 12.94098,1.39301 0,0.76616 -0.7118,1.66616 -1.58179,2 C 361.74941,276.41713 340.16544,276.0767 339.5,275 Z m -208,-8 c -1.37919,-2.23158 1.0483,-3 9.47723,-3 C 150.68397,264 153,264.5022 153,266.60699 153,267.70873 150.81682,268 142.55902,268 136.67705,268 131.84817,267.56335 131.5,267 Z m 69.07003,0.11331 c -1.76664,-2.85848 2.93779,-3.12864 50.03067,-2.87309 44.67861,0.24245 47.89468,0.37652 48.20908,2.00978 0.31713,1.64745 -2.53548,1.75 -48.67744,1.75 -27.42196,0 -49.25572,-0.39062 -49.56231,-0.88669 z M 347,266.55288 c 0,-2.11794 3.16387,-2.68937 13,-2.34793 6.75775,0.23457 8.5,0.60251 8.5,1.79505 0,1.22271 -1.98726,1.55247 -10.75,1.78383 -9.06042,0.23922 -10.75,0.0458 -10.75,-1.23095 z M 129.72897,259.92879 C 126.35357,257.92434 129.16352,257 138.63234,257 c 8.52196,0 9.47943,0.18253 9.17992,1.75 -0.28044,1.4677 -1.62309,1.78876 -8.32332,1.99025 -4.39392,0.13214 -8.7859,-0.23302 -9.75997,-0.81146 z m 71.40215,-0.2708 c -0.61257,-0.7381 -0.81767,-1.6381 -0.45578,-2 0.86005,-0.86004 97.78927,-0.86004 98.64932,0 0.36189,0.3619 0.15679,1.2619 -0.45578,2 -1.64573,1.98298 -96.09203,1.98298 -97.73776,0 z m 151.53555,0.67534 C 352.3,259.96667 352,259.06667 352,258.33333 352,257.31637 354.24016,257 361.44098,257 c 9.45299,0 12.33117,0.98121 8.65277,2.94983 -2.14364,1.14724 -16.3507,1.45989 -17.42708,0.3835 z M 127.18774,251.25 c 0.28013,-1.46608 1.63053,-1.7915 8.32332,-2.0058 8.05752,-0.258 11.32132,0.59997 10.05804,2.644 -0.42193,0.68269 -4.16627,1.1118 -9.70144,1.1118 -8.04577,0 -8.97838,-0.18803 -8.67992,-1.75 z m 73.38229,0.86331 c -1.76664,-2.85848 2.93779,-3.12864 50.03067,-2.87309 44.67861,0.24245 47.89468,0.37652 48.20908,2.00978 0.31713,1.64745 -2.53548,1.75 -48.67744,1.75 -27.42196,0 -49.25572,-0.39062 -49.56231,-0.88669 z m 153.87612,-0.20044 c -1.36178,-2.20341 1.44524,-2.99166 9.63577,-2.70585 7.06294,0.24646 8.44905,0.57083 8.73034,2.04298 0.29846,1.56197 -0.63415,1.75 -8.67992,1.75 -5.4125,0 -9.28277,-0.43438 -9.68619,-1.08713 z m -228.92799,-7.88349 c -0.35471,-0.57393 -0.0163,-1.28474 0.75205,-1.57957 2.36651,-0.90812 17.72814,-0.0112 17.98643,1.05019 0.33617,1.38137 -17.89363,1.89638 -18.73848,0.52938 z m 75.17569,0.33114 c -0.35171,-0.35171 -0.40015,-1.02671 -0.10765,-1.5 C 200.87871,242.38723 223.14148,242 250.05902,242 292.89545,242 299,242.1871 299,243.5 c 0,1.31286 -6.09259,1.5 -48.83333,1.5 -26.85834,0 -49.1211,-0.28777 -49.47282,-0.63948 z m 154.82431,-0.33114 c -0.35471,-0.57393 -0.0163,-1.28474 0.75205,-1.57957 2.36651,-0.90812 17.72814,-0.0112 17.98643,1.05019 0.33617,1.38137 -17.89363,1.89638 -18.73848,0.52938 z M 125.70153,237.36819 C 125.31569,236.98235 125,236.05037 125,235.29712 c 0,-1.08532 2.02345,-1.31015 9.75,-1.08333 7.87279,0.2311 9.75,0.57501 9.75,1.78621 0,1.20183 -1.79866,1.55662 -9.04847,1.78486 -4.97667,0.15667 -9.36417,-0.0308 -9.75,-0.41667 z m 75.75053,-0.44576 c -0.37279,-0.60318 -0.26259,-1.5119 0.24489,-2.01938 0.54524,-0.54524 20.53361,-0.8164 48.86286,-0.66286 41.83136,0.2267 47.94019,0.45095 47.94019,1.75981 0,1.30899 -6.13593,1.53305 -48.18507,1.75956 -34.13508,0.18388 -48.38271,-0.0602 -48.86287,-0.83713 z m 154.01661,0.0269 c -1.39906,-2.26374 1.41375,-3.02527 10.12258,-2.74056 7.12278,0.23286 8.90875,0.59196 8.90875,1.79125 0,1.20344 -1.81269,1.55663 -9.16846,1.78645 -5.99611,0.18733 -9.40873,-0.10232 -9.86287,-0.83714 z M 124,228.5 c 0,-1.24638 1.94444,-1.5 11.5,-1.5 9.55556,0 11.5,0.25362 11.5,1.5 0,1.24638 -1.94444,1.5 -11.5,1.5 -9.55556,0 -11.5,-0.25362 -11.5,-1.5 z m 76.69385,0.86052 c -0.35171,-0.35171 -0.40015,-1.02671 -0.10765,-1.5 C 200.87871,227.38723 223.14148,227 250.05902,227 292.89545,227 299,227.1871 299,228.5 c 0,1.31286 -6.09259,1.5 -48.83333,1.5 -26.85834,0 -49.1211,-0.28777 -49.47282,-0.63948 z M 353,228.5 c 0,-1.24638 1.94444,-1.5 11.5,-1.5 9.55556,0 11.5,0.25362 11.5,1.5 0,1.24638 -1.94444,1.5 -11.5,1.5 -9.55556,0 -11.5,-0.25362 -11.5,-1.5 z M 124.5,222 c -1.4719,-2.38159 1.1857,-3 12.89235,-3 6.75087,0 12.57041,0.2961 12.93231,0.65799 0.36189,0.3619 0.15679,1.2619 -0.45578,2 C 148.51399,223.29053 125.48943,223.60093 124.5,222 Z m 76.95206,-0.0776 c -0.37279,-0.60318 -0.26259,-1.5119 0.24489,-2.01938 0.54524,-0.54524 20.53361,-0.8164 48.86286,-0.66286 41.83136,0.2267 47.94019,0.45095 47.94019,1.75981 0,1.30899 -6.13593,1.53305 -48.18507,1.75956 -34.13508,0.18388 -48.38271,-0.0602 -48.86287,-0.83713 z m 148.5563,0.12059 c -3.42903,-2.20627 0.73243,-3.10553 13.07377,-2.82515 C 373.32818,219.45066 375.5,219.76234 375.5,221 c 0,1.23603 -2.11172,1.54424 -12,1.75138 -6.6,0.13826 -12.67124,-0.1805 -13.49164,-0.70836 z m -225.46189,-7.96783 c -1.40592,-2.27483 3.84759,-3.12205 17.68925,-2.85273 C 154.12506,211.45379 156.5,211.74974 156.5,213 c 0,1.25784 -2.53062,1.5444 -15.67552,1.77501 -9.41458,0.16518 -15.91616,-0.11434 -16.27801,-0.69982 z m 76.12887,0.26682 c -0.36189,-0.3619 -0.15679,-1.2619 0.45578,-2 1.64573,-1.98298 96.09203,-1.98298 97.73776,0 0.61257,0.7381 0.81767,1.6381 0.45578,2 -0.86005,0.86004 -97.78927,0.86004 -98.64932,0 z M 343.5,214 c -1.50345,-2.43264 1.23449,-3 14.47723,-3 C 372.62425,211 375,211.36384 375,213.60699 375,214.73753 372.09059,215 359.55902,215 c -9.2153,0 -15.69017,-0.40319 -16.05902,-1 z m -218,-7 c -1.59903,-2.58728 1.43571,-3 22.05902,-3 20.81326,0 24.11021,0.5011 19.50672,2.96482 -2.5512,1.36536 -40.72367,1.39767 -41.56574,0.0352 z m 75.63903,-0.33248 c -0.61692,-0.74335 -0.82558,-1.64763 -0.46369,-2.00953 C 201.03724,204.2961 223.34133,204 250.23999,204 c 46.03944,0 48.88691,0.1026 48.56978,1.75 -0.31443,1.63342 -3.54148,1.76729 -48.44297,2.00952 -39.43103,0.21273 -48.30837,0.0158 -49.22777,-1.092 z M 332.75,206.9199 c -0.9625,-0.5606 -1.75,-1.44692 -1.75,-1.96959 0,-1.03215 42.24062,-1.37636 43.26443,-0.35254 0.32877,0.32877 0.35563,1.22877 0.0597,2 -0.43692,1.13859 -4.23128,1.39651 -20.1811,1.37182 -11.47279,-0.0178 -20.3709,-0.45436 -21.39301,-1.04969 z M 127,198.60699 c 0,-0.76616 0.7118,-1.66616 1.58179,-2 2.0638,-0.79196 49.77262,-0.79196 51.83642,0 0.86999,0.33384 1.58179,1.23384 1.58179,2 C 182,199.7639 177.33906,200 154.5,200 131.66094,200 127,199.7639 127,198.60699 Z m 73.67534,0.73502 c -0.36189,-0.3619 -0.15679,-1.2619 0.45578,-2 1.64573,-1.98298 96.09203,-1.98298 97.73776,0 0.61257,0.7381 0.81767,1.6381 0.45578,2 -0.86005,0.86004 -97.78927,0.86004 -98.64932,0 z M 318,198.60699 c 0,-0.76616 0.7118,-1.66616 1.58179,-2 2.0638,-0.79196 49.77262,-0.79196 51.83642,0 0.86999,0.33384 1.58179,1.23384 1.58179,2 C 373,199.7639 368.33906,200 345.5,200 322.66094,200 318,199.7639 318,198.60699 Z M 129.66667,192.33333 C 129.3,191.96667 129,191.06667 129,190.33333 129,189.25105 134.80556,189 159.83333,189 c 16.95834,0 31.12943,0.2961 31.49133,0.65799 0.36189,0.3619 0.15679,1.2619 -0.45578,2 -0.88601,1.06758 -7.1895,1.34201 -30.82466,1.34201 -16.34099,0 -30.01089,-0.3 -30.37755,-0.66667 z m 72.00949,0.01 C 201.30427,191.97094 201,191.06667 201,190.33333 201,189.24034 209.84555,189 250.07332,189 c 46.19817,0 49.05359,0.10253 48.73645,1.75 -0.31442,1.63339 -3.53929,1.76729 -48.39716,2.0095 -26.43315,0.14272 -48.36456,-0.0448 -48.73645,-0.41667 z m 107.46696,-0.67038 c -0.61917,-0.74606 -0.82967,-1.65256 -0.46778,-2.01446 C 309.03724,189.2961 323.24133,189 340.23999,189 c 28.8965,0 30.88476,0.11382 30.56998,1.75 -0.3104,1.61338 -2.68672,1.77065 -30.43888,2.01446 -24.36691,0.21408 -30.31668,0.006 -31.22797,-1.09201 z M 131.4309,183.8882 c -0.37792,-0.6115 -0.067,-1.5046 0.69098,-1.98469 0.75797,-0.48009 14.03552,-0.87978 29.50568,-0.8882 22.32506,-0.0121 28.35731,0.26154 29.24132,1.3267 0.61257,0.7381 0.81767,1.6381 0.45578,2 -1.20338,1.20338 -59.14087,0.76439 -59.89376,-0.45381 z m 69.75947,-0.6382 c 0.31544,-1.63796 3.44029,-1.75 48.80963,-1.75 45.36934,0 48.49419,0.11204 48.80963,1.75 0.31728,1.6475 -2.54158,1.75 -48.80963,1.75 -46.26805,0 -49.12691,-0.1025 -48.80963,-1.75 z m 107.48497,1.09201 c -0.36189,-0.3619 -0.15679,-1.2619 0.45578,-2 0.88401,-1.06516 6.91626,-1.33885 29.24132,-1.3267 15.47016,0.008 28.74771,0.40811 29.50568,0.8882 0.75796,0.48009 1.0689,1.37319 0.69098,1.98469 -0.75289,1.2182 -58.69038,1.65719 -59.89376,0.45381 z M 135.25,177.33772 C 134.5625,177.06031 134,176.19583 134,175.41667 134,174.22701 138.64706,174 163,174 c 24.12119,0 29,0.23435 29,1.39301 0,0.76616 -0.7118,1.66616 -1.58179,2 -1.88606,0.72375 -53.36541,0.67216 -55.16821,-0.0553 z m 67,0 C 201.5625,177.06031 201,176.19583 201,175.41667 201,174.21372 208.39216,174 250,174 c 41.21627,0 49,0.22128 49,1.39301 0,0.76616 -0.7118,1.66616 -1.58179,2 -1.88928,0.72499 -93.36619,0.67184 -95.16821,-0.0553 z m 107,0 C 308.5625,177.06031 308,176.19583 308,175.41667 308,174.22765 312.57033,174 336.44098,174 c 27.72837,0 32.50477,0.5201 28.43714,3.09649 -1.43015,0.90584 -53.42229,1.1313 -55.62812,0.24123 z m -171.67012,-8.20847 c -1.6721,-2.70551 2.77545,-3.15678 28.54289,-2.8961 C 188.78393,166.46241 192.5,166.71132 192.5,168 c 0,1.29002 -3.80499,1.53723 -27.18113,1.76595 -15.40992,0.15077 -27.42272,-0.12496 -27.73899,-0.6367 z m 65.09546,0.21276 c -0.36189,-0.3619 -0.15679,-1.2619 0.45578,-2 1.64488,-1.98196 92.09288,-1.98196 93.73776,0 0.61257,0.7381 0.81767,1.6381 0.45578,2 -0.86003,0.86003 -93.78929,0.86003 -94.64932,0 z M 307.5,169 c -1.63491,-2.64535 1.54948,-3 26.93657,-3 20.79724,0 26.5522,0.28154 27.43231,1.34201 0.61257,0.7381 0.81767,1.6381 0.45578,2 C 361.2211,170.44557 308.18895,170.11474 307.5,169 Z M 142.66667,162.33333 C 142.3,161.96667 142,161.06667 142,160.33333 142,159.25514 147.16667,159 169,159 c 22.41169,0 27,0.23672 27,1.39301 0,0.76616 -0.7118,1.66616 -1.58179,2 -2.16202,0.82965 -50.91844,0.77342 -51.75154,-0.0597 z m 64.45521,-0.23684 C 202.82079,159.37222 207.97509,159 250,159 c 42.02491,0 47.17921,0.37222 42.87812,3.09649 -1.80006,1.14014 -83.95618,1.14014 -85.75624,0 z M 305.25,162.34634 C 304.5625,162.06419 304,161.19583 304,160.41667 304,159.22933 308.38261,159 331.07332,159 c 25.24567,0 27.05061,0.11814 26.73676,1.75 -0.30895,1.6064 -2.42791,1.76474 -25.82332,1.92967 -14.01772,0.0988 -26.04926,-0.0512 -26.73676,-0.33333 z m -158.66996,-8.21683 c -1.66809,-2.69903 2.77093,-3.15755 28.04307,-2.89665 C 196.8394,151.46221 200.5,151.71219 200.5,153 c 0,1.2892 -3.74953,1.53741 -26.68097,1.7662 -15.11835,0.15084 -26.92279,-0.12508 -27.23899,-0.63669 z M 213,154.2 c 0,-2.94742 2.9204,-3.2 37,-3.2 34.0796,0 37,0.25258 37,3.2 0,0.44 -16.65,0.8 -37,0.8 -20.35,0 -37,-0.36 -37,-0.8 z m 86.5,-0.2 c -1.63178,-2.64028 1.53816,-3 26.43657,-3 20.37896,0 26.0532,0.28274 26.93231,1.34201 0.61257,0.7381 0.81767,1.6381 0.45578,2 C 352.2215,155.44517 300.18883,155.11455 299.5,154 Z m -147.25565,-8.23428 c 0.3239,-0.97264 6.96403,-1.32725 28.67715,-1.53144 22.43931,-0.21103 28.16889,-0.005 27.83415,1 -0.3239,0.97264 -6.96403,1.32725 -28.67715,1.53144 -22.43931,0.21103 -28.16889,0.005 -27.83415,-1 z M 240.25,146.2545 c 5.3625,-0.17981 14.1375,-0.17981 19.5,0 5.3625,0.17981 0.975,0.32692 -9.75,0.32692 -10.725,0 -15.1125,-0.14711 -9.75,-0.32692 z m 51.41667,0.0788 C 291.3,145.96667 291,145.28466 291,144.81776 c 0,-0.4669 12.67518,-0.7294 28.16708,-0.58333 21.45279,0.20226 28.2663,0.56354 28.58333,1.51557 0.32638,0.98009 -5.61174,1.25 -27.50041,1.25 -15.35417,0 -28.21667,-0.3 -28.58333,-0.66667 z M 159.19007,138.25 c 0.31111,-1.61693 2.78803,-1.77006 32.57332,-2.01385 C 213.55596,136.05778 224,136.30878 224,137.0109 224,139.44554 217.48207,140 188.86158,140 c -28.04087,0 -29.98615,-0.11473 -29.67151,-1.75 z m 118.5537,0.58564 c -1.51593,-0.55355 -2.50187,-1.41803 -2.19098,-1.92105 0.62209,-1.00658 61.28255,-1.29874 63.86542,-0.3076 0.86999,0.33384 1.58179,1.23384 1.58179,2 0,1.16172 -5.02258,1.3799 -30.25,1.31406 -17.58896,-0.0459 -31.40361,-0.5002 -33.00623,-1.08541 z M 166,131.03518 C 166,128.21181 171.86205,128 250,128 c 78.13795,0 84,0.21181 84,3.03518 0,0.6121 -30.70881,0.96482 -84,0.96482 -53.29119,0 -84,-0.35272 -84,-0.96482 z M 176.19037,123.25 c 0.31732,-1.64773 4.63077,-1.75 73.80963,-1.75 69.17886,0 73.49231,0.10227 73.80963,1.75 0.31852,1.65396 -3.73205,1.75 -73.80963,1.75 -70.07758,0 -74.12815,-0.096 -73.80963,-1.75 z M 187,115.97525 C 187,113.34786 194.36576,113 250,113 c 55.63424,0 63,0.34786 63,2.97525 0,0.68882 -20.65224,1.02475 -63,1.02475 -42.34776,0 -63,-0.33593 -63,-1.02475 z m 17.1149,-6.88308 C 200.05195,106.51906 207.75433,106 250,106 c 42.24567,0 49.94805,0.51906 45.8851,3.09217 -0.76181,0.48246 -21.4101,0.8772 -45.8851,0.8772 -24.475,0 -45.12329,-0.39474 -45.8851,-0.8772 z M 230,101.13592 C 230,99.847841 237.93887,99 250,99 c 12.06113,0 20,0.847841 20,2.13592 0,0.47525 -9,0.86408 -20,0.86408 -11,0 -20,-0.38883 -20,-0.86408 z"
       id="path5" /><path
       style="fill:#65fee0"
       d="m 193.12476,345.02607 c -2.41453,-0.47421 -5.14996,-1.5499 -6.07874,-2.39043 -0.92877,-0.84053 -2.8274,-1.52824 -4.21917,-1.52824 -5.0591,0 -22.81203,-10.85851 -22.81203,-13.95288 0,-1.5653 -0.58872,-1.78057 -3.75,-1.37121 -3.15712,0.40882 -4.61192,-0.12059 -9.20171,-3.34856 -6.0835,-4.27847 -12.30393,-11.75029 -11.83523,-14.21617 0.24081,-1.26689 2.01368,-1.72314 8.29659,-2.13514 10.11913,-0.66355 7.96659,-1.63339 -5.44783,-2.45456 l -10.43817,-0.63897 -4.78615,-4.69125 c -2.63237,-2.5802 -4.79769,-5.02876 -4.81182,-5.44126 -0.0301,-0.87915 23.08871,-1.02707 25.34265,-0.16215 0.84255,0.32331 4.45487,4.52853 8.02738,9.34493 10.99527,14.82363 29.95642,30.70288 47.85429,40.07616 2.6125,1.3682 4.75,2.8259 4.75,3.23934 0,0.94911 -5.17703,0.79242 -10.89006,-0.32961 z m 103.39889,0.067 c 0.34478,-0.55786 2.50884,-1.96857 4.80902,-3.13492 8.55541,-4.33817 25.44591,-16.59437 33.55231,-24.34646 4.60359,-4.40238 11.04034,-11.67799 14.3039,-16.16803 3.26356,-4.49003 6.62129,-8.42753 7.46163,-8.75 2.3089,-0.886 25.36431,-0.70304 25.36431,0.20129 0,0.43318 -2.1375,2.88881 -4.75,5.45697 l -4.75,4.66937 -10.78334,0.69247 c -12.11344,0.77789 -15.46723,2.38543 -5.02568,2.40891 9.13487,0.0206 10.21456,0.78342 7.44683,5.26171 -2.66047,4.30473 -9.8145,10.98731 -14.17824,13.24389 -2.11944,1.096 -4.47668,1.49458 -6.70272,1.13334 -2.72413,-0.44206 -3.31906,-0.25876 -2.87935,0.88712 0.75371,1.96414 -1.95665,4.28871 -11.107,9.52605 -4.50801,2.58022 -9.12081,4.47474 -11.03814,4.53346 -1.81159,0.0555 -3.84247,0.80018 -4.51308,1.65487 -2.03115,2.58874 -18.76351,5.24286 -17.21045,2.72996 z M 114.93858,288.21549 c -3.52553,-0.59947 -9.92376,-6.41171 -9.92376,-9.01488 0,-0.82133 4.56206,-1.06547 16.21943,-0.86798 l 16.21942,0.27477 2.26413,4 c 3.68102,6.50323 3.66132,6.51648 -9.45298,6.35809 -6.4625,-0.078 -13.35931,-0.41554 -15.32624,-0.75 z m 243.09269,-0.22221 c 0.009,-0.76224 1.03528,-3.18588 2.28051,-5.38588 l 2.26406,-4 15.89321,-0.27628 c 8.74127,-0.15195 16.22645,0.073 16.63374,0.5 0.40728,0.42696 -0.97936,2.75693 -3.08143,5.17772 l -3.82193,4.40144 -15.09231,0.48443 c -12.43436,0.39913 -15.0894,0.24037 -15.07585,-0.90143 z M 94.764815,274.41807 c -0.9625,-0.25152 -1.75,-0.79332 -1.75,-1.204 0,-0.41067 -1.559304,-2.56837 -3.465119,-4.79489 -1.905816,-2.22651 -3.180816,-4.33251 -2.833334,-4.67999 0.851137,-0.85114 40.141888,-0.61521 43.285508,0.25992 1.76597,0.49161 2.96721,1.98486 4.14315,5.15032 0.91086,2.45188 1.45263,4.79547 1.20393,5.20797 -0.47663,0.79058 -37.578816,0.84605 -40.584135,0.0607 z m 270.250005,-1.34279 c 0,-1.11766 0.62398,-3.5255 1.38662,-5.35076 1.13578,-2.71831 2.08548,-3.43409 5.25,-3.95687 4.97799,-0.82237 40.83369,-0.85661 41.65053,-0.0398 0.82817,0.82818 -5.9843,9.69611 -8.11177,10.55923 -0.92146,0.37385 -10.33788,0.71135 -20.92538,0.75 -18.70781,0.0683 -19.25,0.0131 -19.25,-1.96183 z M 94.14858,257.95285 76.782345,257.09659 69.314804,252.102 c -4.107148,-2.74703 -7.879843,-4.9946 -8.383766,-4.9946 -0.503922,0 -0.916223,-0.50872 -0.916223,-1.1305 0,-0.8319 7.841739,-0.9349 29.689627,-0.38997 16.329298,0.40728 31.741798,1.03319 34.250008,1.3909 4.48335,0.63939 4.58083,0.73309 5.77164,5.54812 0.66621,2.69376 0.97715,5.27658 0.69099,5.7396 -0.60721,0.98249 -11.99026,0.88435 -36.2685,-0.3127 z m 275.46398,0.3127 c -0.28616,-0.46302 0.0248,-3.04584 0.69099,-5.7396 1.19274,-4.8228 1.28164,-4.90778 5.8103,-5.55365 2.52947,-0.36075 18.27947,-0.94662 35,-1.30193 34.25596,-0.72793 32.57924,-1.32655 19.39465,6.92424 l -7.00632,4.38449 -21.49368,1.06141 c -25.99894,1.28389 -31.71699,1.32361 -32.39594,0.22504 z m -279.597745,-15.34453 -34.5,-0.86976 -7.5,-3.07425 c -10.035043,-4.11337 -10.582767,-4.86961 -3.526914,-4.86961 9.641623,0 80.923679,3.0363 82.276919,3.50463 1.79824,0.62234 1.54204,5.16933 -0.33179,5.88838 -0.86998,0.33385 -1.65748,0.53575 -1.75,0.44868 -0.0925,-0.0871 -15.69321,-0.5497 -34.668215,-1.02807 z m 282.987205,0.35305 c -1.16328,-0.39279 -1.33588,-4.83314 -0.2148,-5.526 1.08048,-0.66778 83.29599,-3.92292 86.28619,-3.41631 2.03103,0.3441 1.26477,0.97532 -4.55859,3.75522 -6.90386,3.2957 -7.26095,3.35257 -26,4.14076 -22.04593,0.92728 -54.07732,1.53102 -55.5128,1.04633 z M 77.014815,232.55568 c -15.675,-0.68741 -32.375623,-1.29449 -37.112495,-1.34906 -8.048467,-0.0927 -8.867087,-0.30157 -12.5,-3.18907 -2.138128,-1.69942 -4.558756,-3.46567 -5.379175,-3.925 -0.820418,-0.45933 -1.197905,-1.12891 -0.83886,-1.48795 0.587259,-0.58726 84.566055,3.69014 99.413865,5.06358 5.93651,0.54913 6.08334,0.63363 6.08334,3.50097 v 2.93825 l -10.58334,-0.15094 c -5.82083,-0.083 -23.408335,-0.71337 -39.083335,-1.40078 z M 373.34815,231.1771 c 0,-2.90879 0.052,-2.93465 7.08334,-3.5233 6.72076,-0.56265 93.97215,-5.5464 97.10182,-5.5464 2.74753,0 1.50926,1.73778 -3.76849,5.28866 l -5.25,3.53221 -43.5,1.60459 c -56.72532,2.09244 -51.66667,2.22518 -51.66667,-1.35576 z"
       id="path3263" /></g></svg>
